<svg width="289" height="256" viewBox="0 0 289 256" fill="none" xmlns="http://www.w3.org/2000/svg">
<g filter="url(#filter0_d_517_98)">
<path d="M223.427 234.769L281.779 135.661C288.408 124.402 283.362 113.768 280.01 109.858C264.293 82.882 230.971 25.763 223.427 13.0959C215.882 0.428858 205.744 -0.00114066 201.618 1.36724C175.684 0.976281 118.393 0.428937 96.7027 1.36724C75.0123 2.30553 74.8943 1.36724 66.0532 13.6824C48.1743 44.9591 11.2377 109.272 6.52239 116.309C1.80709 123.346 4.5577 129.406 6.52239 131.556C22.0436 158.532 55.3259 216.355 64.2849 231.837C73.244 247.319 89.6297 248.844 96.7027 247.671C123.03 247.475 179.574 247.202 195.135 247.671C210.695 248.14 220.48 239.265 223.427 234.769Z" fill="white"/>
<path d="M223.427 234.769L281.779 135.661C288.408 124.402 283.362 113.768 280.01 109.858C264.293 82.882 230.971 25.763 223.427 13.0959C215.882 0.428858 205.744 -0.00114066 201.618 1.36724C175.684 0.976281 118.393 0.428937 96.7027 1.36724C75.0123 2.30553 74.8943 1.36724 66.0532 13.6824C48.1743 44.9591 11.2377 109.272 6.52239 116.309C1.80709 123.346 4.5577 129.406 6.52239 131.556C22.0436 158.532 55.3259 216.355 64.2849 231.837C73.244 247.319 89.6297 248.844 96.7027 247.671C123.03 247.475 179.574 247.202 195.135 247.671C210.695 248.14 220.48 239.265 223.427 234.769Z" stroke="black"/>
</g>
<defs>
<filter id="filter0_d_517_98" x="0.145736" y="0.835449" width="288.65" height="254.692" filterUnits="userSpaceOnUse" color-interpolation-filters="sRGB">
<feFlood flood-opacity="0" result="BackgroundImageFix"/>
<feColorMatrix in="SourceAlpha" type="matrix" values="0 0 0 0 0 0 0 0 0 0 0 0 0 0 0 0 0 0 127 0" result="hardAlpha"/>
<feOffset dy="3.77321"/>
<feGaussianBlur stdDeviation="1.8866"/>
<feComposite in2="hardAlpha" operator="out"/>
<feColorMatrix type="matrix" values="0 0 0 0 0 0 0 0 0 0 0 0 0 0 0 0 0 0 0.25 0"/>
<feBlend mode="normal" in2="BackgroundImageFix" result="effect1_dropShadow_517_98"/>
<feBlend mode="normal" in="SourceGraphic" in2="effect1_dropShadow_517_98" result="shape"/>
</filter>
</defs>
</svg>
