<svg width="27" height="26" viewBox="0 0 27 26" fill="none" xmlns="http://www.w3.org/2000/svg">
<path d="M20.0352 7.80081C19.9976 8.64287 20.0957 9.68767 19.9894 10.7308C19.978 10.8486 20.0319 10.8862 20.1251 10.932C21.5967 11.6481 22.962 12.5376 24.3845 13.3306C24.615 13.4598 24.8423 13.5938 25.0712 13.7279C25.4512 13.9354 25.7668 14.2435 25.9834 14.6184C26.2 14.9933 26.3092 15.4206 26.2991 15.8535C26.3122 17.5539 26.3122 19.2539 26.2991 20.9532C26.3119 21.3877 26.2041 21.8172 25.9876 22.1942C25.7712 22.5711 25.4545 22.8807 25.0728 23.0886C23.6046 23.9443 22.133 24.7945 20.6582 25.6393C20.2796 25.8743 19.8425 25.998 19.3969 25.9962C18.9514 25.9945 18.5153 25.8674 18.1385 25.6295C16.6964 24.7989 15.2232 24.0141 13.8253 23.1132C13.289 22.7682 12.9816 22.8156 12.478 23.1295C11.0571 24.0157 9.58881 24.8283 8.13197 25.6573C7.76668 25.8814 7.34649 26 6.91794 26C6.48939 26 6.0692 25.8814 5.70391 25.6573C4.23235 24.8218 2.78206 23.965 1.31541 23.1295C0.429203 22.6259 0.0171681 21.8574 0.00735777 20.8617C-0.00245259 19.2201 -0.00245259 17.5774 0.00735777 15.9336C-0.00806233 15.4655 0.110153 15.0027 0.348172 14.5993C0.58619 14.196 0.934166 13.8688 1.35138 13.656C2.78206 12.8499 4.18003 11.9817 5.63197 11.2197C6.16009 10.9434 6.31706 10.6834 6.28599 10.0834C6.22059 8.40905 6.26473 6.73148 6.2631 5.05391C6.24512 4.61451 6.35161 4.17896 6.5703 3.79742C6.78898 3.41588 7.11097 3.10385 7.4992 2.89727C8.95986 2.05031 10.4216 1.20607 11.8844 0.364555C12.702 -0.109613 13.544 -0.125964 14.373 0.343298C15.8773 1.20334 17.3864 2.06011 18.876 2.94632C19.2351 3.1455 19.5321 3.44018 19.7341 3.79773C19.9361 4.15528 20.0352 4.56176 20.0205 4.97216L20.0352 7.80081ZM13.822 18.2423C13.822 19.1138 13.8416 19.9869 13.822 20.8584C13.8029 21.0996 13.857 21.341 13.9772 21.551C14.0973 21.761 14.278 21.9299 14.4956 22.0356C15.9192 22.8521 17.3406 23.6729 18.7599 24.498C18.9581 24.6261 19.1896 24.6932 19.4257 24.6909C19.6617 24.6885 19.8918 24.6169 20.0875 24.485C21.4937 23.6674 22.9047 22.8499 24.324 22.0324C24.5372 21.9283 24.7159 21.765 24.8389 21.562C24.9618 21.3591 25.0237 21.125 25.0172 20.8878C25.0238 19.2212 25.0238 17.5561 25.0172 15.8927C25.0302 15.6845 24.9849 15.4767 24.8864 15.2927C24.788 15.1088 24.6402 14.9559 24.4597 14.8512C22.9685 13.9901 21.4768 13.1289 19.9845 12.2678C19.8129 12.1605 19.6146 12.1036 19.4123 12.1036C19.2099 12.1036 19.0116 12.1605 18.84 12.2678C17.2594 13.1802 15.6789 14.0909 14.0983 15C14.0116 15.042 13.9397 15.1094 13.8921 15.1932C13.8445 15.277 13.8235 15.3732 13.8318 15.4692C13.8334 16.4045 13.822 17.3234 13.822 18.2423ZM18.7501 7.61441C18.7501 6.76418 18.7501 5.91395 18.7501 5.06372C18.7607 4.85598 18.7119 4.6495 18.6094 4.4685C18.5069 4.2875 18.3549 4.13948 18.1712 4.04181C16.7008 3.19049 15.2292 2.33971 13.7566 1.48948C13.5762 1.37486 13.3669 1.314 13.1532 1.314C12.9395 1.314 12.7303 1.37486 12.5499 1.48948C11.0805 2.34298 9.60898 3.19376 8.13524 4.04181C7.95572 4.13627 7.8063 4.2792 7.70398 4.45436C7.60166 4.62952 7.55054 4.82988 7.55643 5.03266C7.55643 6.74293 7.55643 8.45429 7.55643 10.1667C7.55015 10.3692 7.60055 10.5694 7.70195 10.7448C7.80335 10.9201 7.95172 11.0637 8.13034 11.1592C9.73106 12.0847 11.3351 13.0052 12.9341 13.9388C13.0002 13.9837 13.0783 14.0077 13.1581 14.0077C13.238 14.0077 13.3161 13.9837 13.3822 13.9388C14.9812 13.0134 16.582 12.0869 18.1843 11.1592C18.3672 11.0594 18.5177 10.9094 18.6182 10.7269C18.7187 10.5444 18.765 10.337 18.7517 10.1291C18.7386 9.28381 18.7501 8.44503 18.7501 7.60624V7.61441ZM12.496 18.2783C12.496 17.3594 12.496 16.4405 12.496 15.5216C12.5055 15.4145 12.4817 15.307 12.4279 15.2139C12.374 15.1209 12.2927 15.0467 12.1951 15.0016C10.6303 14.1105 9.0705 13.203 7.50902 12.3054C7.32782 12.1926 7.11824 12.1338 6.90483 12.1358C6.69142 12.1379 6.483 12.2007 6.30398 12.3168C4.85313 13.1551 3.40065 13.9901 1.94654 14.8218C1.75115 14.921 1.58885 15.0749 1.47941 15.2648C1.36996 15.4547 1.31809 15.6723 1.33012 15.8911C1.33993 17.5785 1.33993 19.268 1.33012 20.9598C1.31852 21.1783 1.37098 21.3954 1.48107 21.5845C1.59115 21.7736 1.75407 21.9264 1.94981 22.0242C3.4061 22.8548 4.85804 23.692 6.30561 24.5357C6.49097 24.6525 6.70598 24.7137 6.9251 24.712C7.14422 24.7102 7.35823 24.6456 7.54172 24.5258C8.98057 23.6898 10.4221 22.8581 11.8665 22.0307C12.067 21.9298 12.2335 21.7722 12.3451 21.5774C12.4568 21.3826 12.5086 21.1593 12.4943 20.9353C12.4845 20.0327 12.4943 19.1547 12.496 18.2701V18.2783Z" fill="#F3C63E"/>
<path d="M9.51035 7.02912C9.53651 6.66777 9.45803 6.22958 9.57902 5.79956C9.71766 5.23409 10.0691 4.74389 10.5601 4.43101C11.0506 4.12198 11.5656 3.83258 12.0774 3.54971C12.4502 3.3437 12.8197 3.43853 12.9996 3.759C13.1794 4.07947 13.0764 4.449 12.7134 4.66809C12.2703 4.93461 11.8207 5.18804 11.3743 5.44475C11.1958 5.54015 11.0477 5.68376 10.9468 5.85923C10.8459 6.03469 10.7963 6.23496 10.8037 6.43723C10.8037 6.94083 10.8037 7.44606 10.8037 7.95129C10.8037 8.41402 10.5568 8.68053 10.1627 8.68217C9.76869 8.6838 9.5267 8.42874 9.52016 7.96111C9.50708 7.67334 9.51035 7.3872 9.51035 7.02912Z" fill="#F3C63E"/>
<path d="M3.87446 19.9182C3.71666 19.9231 3.56329 19.8656 3.4476 19.7582C3.33191 19.6508 3.26321 19.5021 3.2564 19.3443C3.24332 18.602 3.16321 17.8515 3.30873 17.1141C3.36844 16.8098 3.49161 16.5214 3.67023 16.2679C3.84884 16.0143 4.07888 15.8012 4.34536 15.6426C4.82279 15.3433 5.31331 15.0687 5.80546 14.7972C6.18153 14.5879 6.53634 14.6697 6.73418 14.9918C6.93202 15.3139 6.83065 15.6753 6.46439 15.9009C6.04418 16.1609 5.6158 16.4045 5.18578 16.6448C4.97453 16.7526 4.79935 16.9198 4.68172 17.1257C4.56408 17.3316 4.50912 17.5674 4.52358 17.8041C4.52358 18.2946 4.52358 18.7851 4.52358 19.2838C4.5288 19.3698 4.51548 19.4558 4.4845 19.5362C4.45352 19.6165 4.40561 19.6892 4.34404 19.7494C4.28246 19.8096 4.20865 19.8558 4.12763 19.885C4.0466 19.9141 3.96026 19.9254 3.87446 19.9182Z" fill="#F3C63E"/>
</svg>
