<svg width="129" height="49" viewBox="0 0 129 49" fill="none" xmlns="http://www.w3.org/2000/svg">
<path d="M6.192 34.28L6.768 35.32L4.544 36.248L6.784 37.16L6.176 38.232L4.24 36.824L4.496 39.24H3.296L3.536 36.824L1.6 38.248L0.976 37.16L3.2 36.232L0.976 35.336L1.568 34.264L3.552 35.688L3.296 33.256H4.512L4.24 35.688L6.192 34.28ZM16.4693 37.112C16.4693 38.04 16.1493 38.8133 15.5093 39.432C14.8799 40.04 13.9146 40.344 12.6133 40.344H10.4693V45H9.01325V33.848H12.6133C13.8719 33.848 14.8266 34.152 15.4773 34.76C16.1386 35.368 16.4693 36.152 16.4693 37.112ZM12.6133 39.144C13.4239 39.144 14.0213 38.968 14.4053 38.616C14.7893 38.264 14.9813 37.7627 14.9813 37.112C14.9813 35.736 14.1919 35.048 12.6133 35.048H10.4693V39.144H12.6133ZM17.7349 40.584C17.7349 39.688 17.9162 38.904 18.2789 38.232C18.6415 37.5493 19.1375 37.0213 19.7669 36.648C20.4069 36.2747 21.1162 36.088 21.8949 36.088C22.6629 36.088 23.3295 36.2533 23.8949 36.584C24.4602 36.9147 24.8815 37.3307 25.1589 37.832V36.232H26.6309V45H25.1589V43.368C24.8709 43.88 24.4389 44.3067 23.8629 44.648C23.2975 44.9787 22.6362 45.144 21.8789 45.144C21.1002 45.144 20.3962 44.952 19.7669 44.568C19.1375 44.184 18.6415 43.6453 18.2789 42.952C17.9162 42.2587 17.7349 41.4693 17.7349 40.584ZM25.1589 40.6C25.1589 39.9387 25.0255 39.3627 24.7589 38.872C24.4922 38.3813 24.1295 38.008 23.6709 37.752C23.2229 37.4853 22.7269 37.352 22.1829 37.352C21.6389 37.352 21.1429 37.48 20.6949 37.736C20.2469 37.992 19.8895 38.3653 19.6229 38.856C19.3562 39.3467 19.2229 39.9227 19.2229 40.584C19.2229 41.256 19.3562 41.8427 19.6229 42.344C19.8895 42.8347 20.2469 43.2133 20.6949 43.48C21.1429 43.736 21.6389 43.864 22.1829 43.864C22.7269 43.864 23.2229 43.736 23.6709 43.48C24.1295 43.2133 24.4922 42.8347 24.7589 42.344C25.0255 41.8427 25.1589 41.2613 25.1589 40.6ZM32.1954 45.144C31.5234 45.144 30.9207 45.032 30.3874 44.808C29.854 44.5733 29.4327 44.2533 29.1234 43.848C28.814 43.432 28.6434 42.9573 28.6114 42.424H30.1154C30.158 42.8613 30.3607 43.2187 30.7234 43.496C31.0967 43.7733 31.582 43.912 32.1794 43.912C32.734 43.912 33.1714 43.7893 33.4914 43.544C33.8114 43.2987 33.9714 42.9893 33.9714 42.616C33.9714 42.232 33.8007 41.9493 33.4594 41.768C33.118 41.576 32.59 41.3893 31.8754 41.208C31.2247 41.0373 30.6914 40.8667 30.2754 40.696C29.87 40.5147 29.518 40.2533 29.2194 39.912C28.9314 39.56 28.7874 39.1013 28.7874 38.536C28.7874 38.088 28.9207 37.6773 29.1874 37.304C29.454 36.9307 29.8327 36.6373 30.3234 36.424C30.814 36.2 31.374 36.088 32.0034 36.088C32.974 36.088 33.758 36.3333 34.3554 36.824C34.9527 37.3147 35.2727 37.9867 35.3154 38.84H33.8594C33.8274 38.3813 33.6407 38.0133 33.2994 37.736C32.9687 37.4587 32.5207 37.32 31.9554 37.32C31.4327 37.32 31.0167 37.432 30.7074 37.656C30.398 37.88 30.2434 38.1733 30.2434 38.536C30.2434 38.824 30.334 39.064 30.5154 39.256C30.7074 39.4373 30.942 39.5867 31.2194 39.704C31.5074 39.8107 31.902 39.9333 32.4034 40.072C33.0327 40.2427 33.5447 40.4133 33.9394 40.584C34.334 40.744 34.67 40.9893 34.9474 41.32C35.2354 41.6507 35.3847 42.0827 35.3954 42.616C35.3954 43.096 35.262 43.528 34.9954 43.912C34.7287 44.296 34.35 44.6 33.8594 44.824C33.3794 45.0373 32.8247 45.144 32.1954 45.144ZM40.5548 45.144C39.8828 45.144 39.2801 45.032 38.7468 44.808C38.2134 44.5733 37.7921 44.2533 37.4828 43.848C37.1734 43.432 37.0028 42.9573 36.9708 42.424H38.4748C38.5174 42.8613 38.7201 43.2187 39.0828 43.496C39.4561 43.7733 39.9414 43.912 40.5388 43.912C41.0934 43.912 41.5308 43.7893 41.8508 43.544C42.1708 43.2987 42.3308 42.9893 42.3308 42.616C42.3308 42.232 42.1601 41.9493 41.8188 41.768C41.4774 41.576 40.9494 41.3893 40.2348 41.208C39.5841 41.0373 39.0508 40.8667 38.6348 40.696C38.2294 40.5147 37.8774 40.2533 37.5788 39.912C37.2908 39.56 37.1468 39.1013 37.1468 38.536C37.1468 38.088 37.2801 37.6773 37.5468 37.304C37.8134 36.9307 38.1921 36.6373 38.6828 36.424C39.1734 36.2 39.7334 36.088 40.3628 36.088C41.3334 36.088 42.1174 36.3333 42.7148 36.824C43.3121 37.3147 43.6321 37.9867 43.6748 38.84H42.2188C42.1868 38.3813 42.0001 38.0133 41.6588 37.736C41.3281 37.4587 40.8801 37.32 40.3148 37.32C39.7921 37.32 39.3761 37.432 39.0668 37.656C38.7574 37.88 38.6028 38.1733 38.6028 38.536C38.6028 38.824 38.6934 39.064 38.8748 39.256C39.0668 39.4373 39.3014 39.5867 39.5788 39.704C39.8668 39.8107 40.2614 39.9333 40.7628 40.072C41.3921 40.2427 41.9041 40.4133 42.2988 40.584C42.6934 40.744 43.0294 40.9893 43.3068 41.32C43.5948 41.6507 43.7441 42.0827 43.7548 42.616C43.7548 43.096 43.6214 43.528 43.3548 43.912C43.0881 44.296 42.7094 44.6 42.2188 44.824C41.7388 45.0373 41.1841 45.144 40.5548 45.144ZM53.8101 40.28C53.8101 40.5573 53.7941 40.8507 53.7621 41.16H46.7541C46.8075 42.024 47.1008 42.7013 47.6341 43.192C48.1781 43.672 48.8341 43.912 49.6021 43.912C50.2315 43.912 50.7541 43.768 51.1701 43.48C51.5968 43.1813 51.8955 42.7867 52.0661 42.296H53.6341C53.3995 43.1387 52.9301 43.8267 52.2261 44.36C51.5221 44.8827 50.6475 45.144 49.6021 45.144C48.7701 45.144 48.0235 44.9573 47.3621 44.584C46.7115 44.2107 46.1995 43.6827 45.8261 43C45.4528 42.3067 45.2661 41.5067 45.2661 40.6C45.2661 39.6933 45.4475 38.8987 45.8101 38.216C46.1728 37.5333 46.6795 37.0107 47.3301 36.648C47.9915 36.2747 48.7488 36.088 49.6021 36.088C50.4341 36.088 51.1701 36.2693 51.8101 36.632C52.4501 36.9947 52.9408 37.496 53.2821 38.136C53.6341 38.7653 53.8101 39.48 53.8101 40.28ZM52.3061 39.976C52.3061 39.4213 52.1835 38.9467 51.9381 38.552C51.6928 38.1467 51.3568 37.8427 50.9301 37.64C50.5141 37.4267 50.0501 37.32 49.5381 37.32C48.8021 37.32 48.1728 37.5547 47.6501 38.024C47.1381 38.4933 46.8448 39.144 46.7701 39.976H52.3061ZM63.8216 45.144C63.0003 45.144 62.2536 44.9573 61.5816 44.584C60.9203 44.2107 60.3976 43.6827 60.0136 43C59.6403 42.3067 59.4536 41.5067 59.4536 40.6C59.4536 39.704 59.6456 38.9147 60.0296 38.232C60.4243 37.5387 60.9576 37.0107 61.6296 36.648C62.3016 36.2747 63.0536 36.088 63.8856 36.088C64.7176 36.088 65.4696 36.2747 66.1416 36.648C66.8136 37.0107 67.3416 37.5333 67.7256 38.216C68.1203 38.8987 68.3176 39.6933 68.3176 40.6C68.3176 41.5067 68.115 42.3067 67.7096 43C67.315 43.6827 66.7763 44.2107 66.0936 44.584C65.411 44.9573 64.6536 45.144 63.8216 45.144ZM63.8216 43.864C64.3443 43.864 64.835 43.7413 65.2936 43.496C65.7523 43.2507 66.1203 42.8827 66.3976 42.392C66.6856 41.9013 66.8296 41.304 66.8296 40.6C66.8296 39.896 66.691 39.2987 66.4136 38.808C66.1363 38.3173 65.7736 37.9547 65.3256 37.72C64.8776 37.4747 64.3923 37.352 63.8696 37.352C63.3363 37.352 62.8456 37.4747 62.3976 37.72C61.9603 37.9547 61.6083 38.3173 61.3416 38.808C61.075 39.2987 60.9416 39.896 60.9416 40.6C60.9416 41.3147 61.0696 41.9173 61.3256 42.408C61.5923 42.8987 61.9443 43.2667 62.3816 43.512C62.819 43.7467 63.299 43.864 63.8216 43.864ZM85.0416 36.072C85.7243 36.072 86.3323 36.216 86.8656 36.504C87.399 36.7813 87.8203 37.2027 88.1296 37.768C88.439 38.3333 88.5936 39.0213 88.5936 39.832V45H87.1536V40.04C87.1536 39.1653 86.935 38.4987 86.4976 38.04C86.071 37.5707 85.4896 37.336 84.7536 37.336C83.9963 37.336 83.3936 37.5813 82.9456 38.072C82.4976 38.552 82.2736 39.2507 82.2736 40.168V45H80.8336V40.04C80.8336 39.1653 80.615 38.4987 80.1776 38.04C79.751 37.5707 79.1696 37.336 78.4336 37.336C77.6763 37.336 77.0736 37.5813 76.6256 38.072C76.1776 38.552 75.9536 39.2507 75.9536 40.168V45H74.4976V36.232H75.9536V37.496C76.2416 37.0373 76.6256 36.6853 77.1056 36.44C77.5963 36.1947 78.135 36.072 78.7216 36.072C79.4576 36.072 80.1083 36.2373 80.6736 36.568C81.239 36.8987 81.6603 37.384 81.9376 38.024C82.183 37.4053 82.5883 36.9253 83.1536 36.584C83.719 36.2427 84.3483 36.072 85.0416 36.072ZM94.806 45.144C93.9847 45.144 93.238 44.9573 92.566 44.584C91.9047 44.2107 91.382 43.6827 90.998 43C90.6247 42.3067 90.438 41.5067 90.438 40.6C90.438 39.704 90.63 38.9147 91.014 38.232C91.4087 37.5387 91.942 37.0107 92.614 36.648C93.286 36.2747 94.038 36.088 94.87 36.088C95.702 36.088 96.454 36.2747 97.126 36.648C97.798 37.0107 98.326 37.5333 98.71 38.216C99.1047 38.8987 99.302 39.6933 99.302 40.6C99.302 41.5067 99.0993 42.3067 98.694 43C98.2993 43.6827 97.7607 44.2107 97.078 44.584C96.3953 44.9573 95.638 45.144 94.806 45.144ZM94.806 43.864C95.3287 43.864 95.8193 43.7413 96.278 43.496C96.7367 43.2507 97.1047 42.8827 97.382 42.392C97.67 41.9013 97.814 41.304 97.814 40.6C97.814 39.896 97.6753 39.2987 97.398 38.808C97.1207 38.3173 96.758 37.9547 96.31 37.72C95.862 37.4747 95.3767 37.352 94.854 37.352C94.3207 37.352 93.83 37.4747 93.382 37.72C92.9447 37.9547 92.5927 38.3173 92.326 38.808C92.0593 39.2987 91.926 39.896 91.926 40.6C91.926 41.3147 92.054 41.9173 92.31 42.408C92.5767 42.8987 92.9287 43.2667 93.366 43.512C93.8033 43.7467 94.2833 43.864 94.806 43.864ZM108.992 36.232V45H107.536V43.704C107.259 44.152 106.87 44.504 106.368 44.76C105.878 45.0053 105.334 45.128 104.736 45.128C104.054 45.128 103.44 44.9893 102.896 44.712C102.352 44.424 101.92 43.9973 101.6 43.432C101.291 42.8667 101.136 42.1787 101.136 41.368V36.232H102.576V41.176C102.576 42.04 102.795 42.7067 103.232 43.176C103.67 43.6347 104.267 43.864 105.024 43.864C105.803 43.864 106.416 43.624 106.864 43.144C107.312 42.664 107.536 41.9653 107.536 41.048V36.232H108.992ZM114.555 45.144C113.883 45.144 113.28 45.032 112.747 44.808C112.213 44.5733 111.792 44.2533 111.483 43.848C111.173 43.432 111.003 42.9573 110.971 42.424H112.475C112.517 42.8613 112.72 43.2187 113.083 43.496C113.456 43.7733 113.941 43.912 114.539 43.912C115.093 43.912 115.531 43.7893 115.851 43.544C116.171 43.2987 116.331 42.9893 116.331 42.616C116.331 42.232 116.16 41.9493 115.819 41.768C115.477 41.576 114.949 41.3893 114.235 41.208C113.584 41.0373 113.051 40.8667 112.635 40.696C112.229 40.5147 111.877 40.2533 111.579 39.912C111.291 39.56 111.147 39.1013 111.147 38.536C111.147 38.088 111.28 37.6773 111.547 37.304C111.813 36.9307 112.192 36.6373 112.683 36.424C113.173 36.2 113.733 36.088 114.363 36.088C115.333 36.088 116.117 36.3333 116.715 36.824C117.312 37.3147 117.632 37.9867 117.675 38.84H116.219C116.187 38.3813 116 38.0133 115.659 37.736C115.328 37.4587 114.88 37.32 114.315 37.32C113.792 37.32 113.376 37.432 113.067 37.656C112.757 37.88 112.603 38.1733 112.603 38.536C112.603 38.824 112.693 39.064 112.875 39.256C113.067 39.4373 113.301 39.5867 113.579 39.704C113.867 39.8107 114.261 39.9333 114.763 40.072C115.392 40.2427 115.904 40.4133 116.299 40.584C116.693 40.744 117.029 40.9893 117.307 41.32C117.595 41.6507 117.744 42.0827 117.755 42.616C117.755 43.096 117.621 43.528 117.355 43.912C117.088 44.296 116.709 44.6 116.219 44.824C115.739 45.0373 115.184 45.144 114.555 45.144ZM127.81 40.28C127.81 40.5573 127.794 40.8507 127.762 41.16H120.754C120.807 42.024 121.101 42.7013 121.634 43.192C122.178 43.672 122.834 43.912 123.602 43.912C124.231 43.912 124.754 43.768 125.17 43.48C125.597 43.1813 125.895 42.7867 126.066 42.296H127.634C127.399 43.1387 126.93 43.8267 126.226 44.36C125.522 44.8827 124.647 45.144 123.602 45.144C122.77 45.144 122.023 44.9573 121.362 44.584C120.711 44.2107 120.199 43.6827 119.826 43C119.453 42.3067 119.266 41.5067 119.266 40.6C119.266 39.6933 119.447 38.8987 119.81 38.216C120.173 37.5333 120.679 37.0107 121.33 36.648C121.991 36.2747 122.749 36.088 123.602 36.088C124.434 36.088 125.17 36.2693 125.81 36.632C126.45 36.9947 126.941 37.496 127.282 38.136C127.634 38.7653 127.81 39.48 127.81 40.28ZM126.306 39.976C126.306 39.4213 126.183 38.9467 125.938 38.552C125.693 38.1467 125.357 37.8427 124.93 37.64C124.514 37.4267 124.05 37.32 123.538 37.32C122.802 37.32 122.173 37.5547 121.65 38.024C121.138 38.4933 120.845 39.144 120.77 39.976H126.306Z" fill="white"/>
<path d="M70 9C70 5.13401 66.866 2 63 2C59.134 2 56 5.13401 56 9V15C56 18.866 59.134 22 63 22C66.866 22 70 18.866 70 15V9Z" stroke="white" stroke-width="2" stroke-linecap="round" stroke-linejoin="round"/>
<path d="M63 6V10" stroke="white" stroke-width="2" stroke-linecap="round" stroke-linejoin="round"/>
</svg>
